<!DOCTYPE svg PUBLIC "-//W3C//DTD SVG 1.1//EN" "http://www.w3.org/Graphics/SVG/1.1/DTD/svg11.dtd">
<!-- Uploaded to: SVG Repo, www.svgrepo.com, Transformed by: SVG Repo Mixer Tools -->
<svg fill="#000000" version="1.1" xmlns="http://www.w3.org/2000/svg" xmlns:xlink="http://www.w3.org/1999/xlink" width="800px" height="800px" viewBox="0 0 30.901 32" xml:space="preserve" transform="matrix(-1, 0, 0, 1, 0, 0)">
<g id="SVGRepo_bgCarrier" stroke-width="0"/>
<g id="SVGRepo_tracerCarrier" stroke-linecap="round" stroke-linejoin="round"/>
<g id="SVGRepo_iconCarrier"> <g id="sailboat"> <path d="M30.855,26.262c-0.088-0.224-0.291-0.381-0.53-0.411L14.52,23.875V1c0-0.553-0.447-1-1-1s-1,0.447-1,1v22.625l-11.78-1.473 c-0.241-0.03-0.479,0.075-0.619,0.272c-0.14,0.198-0.159,0.457-0.051,0.675l3.927,7.854C4.316,31.595,4.973,32,5.69,32h19.701 c0.715,0,1.393-0.317,1.85-0.866l3.508-4.209C30.903,26.739,30.944,26.485,30.855,26.262z"/> <path d="M11.146,1.822L11.52,1L6.884,5.636C2.809,9.711,0.52,15.237,0.52,21l11,1C8.357,15.675,8.22,8.26,11.146,1.822z"/> <path d="M23.52,24c0-5.72-2.469-11.16-6.773-14.927L15.52,8l0.326,0.869c1.716,4.576,1.6,9.639-0.326,14.131L23.52,24z"/> </g> <g id="Layer_1"> </g> </g>
</svg>